<svg width="142" height="60" viewBox="0 0 142 60" fill="none" xmlns="http://www.w3.org/2000/svg">
<g clip-path="url(#clip0_8202_62559)">
<path d="M125.562 32.0386C124.122 31.9912 122.687 31.9439 121.245 31.9914C114.553 32.269 106.974 33.4385 102.215 38.5772C99.9443 41.0299 98.712 44.0679 98.8861 47.4036C98.9999 49.2902 99.5063 51.1336 100.374 52.8193C100.366 52.8336 100.358 52.8478 100.35 52.8618C100.346 52.8694 100.341 52.877 100.337 52.8844C100.082 53.3137 99.542 53.9111 98.9978 54.5135C98.3093 55.2758 97.6133 56.0462 97.4765 56.4949C97.4418 56.6088 97.4674 56.7478 97.5004 56.8592C97.613 57.2344 98.0043 57.5276 98.3113 57.7576L98.3343 57.7749C99.0076 57.1222 99.619 56.4131 100.23 55.7041L100.279 55.6476L101.516 54.1578C104.802 55.9948 108.029 56.5746 111.715 55.5663C116.228 54.3319 119.718 51.1662 121.966 47.1889C124.47 42.7612 125.623 37.0757 125.791 32.0462L125.562 32.0386ZM119.025 36.4764C119.042 36.4808 119.059 36.485 119.076 36.4892C119.236 36.529 119.382 36.5651 119.517 36.6716C119.663 36.7854 119.776 36.9668 119.767 37.1526C119.755 37.3748 119.673 37.4864 119.517 37.6417C119.035 38.1234 118.451 38.5467 117.878 38.9622C117.624 39.1458 117.373 39.3279 117.134 39.5128C115.618 40.6699 114.124 41.8537 112.652 43.0637C113.581 42.8417 116.697 42.3155 117.508 42.5888C117.759 42.6742 117.842 42.7953 117.945 43.0263C117.922 43.3678 117.817 43.5752 117.487 43.7183C117.337 43.7837 116.219 43.8908 114.966 44.011C113.538 44.1479 111.934 44.3016 111.383 44.4298C111.034 44.5111 110.759 44.6258 110.466 44.8283C110.023 45.1347 109.622 45.5173 109.227 45.8949C109.08 46.0353 108.934 46.175 108.786 46.3099C107.487 47.4987 106.213 48.6966 104.967 49.9407C105.852 50.1334 107.153 50.0717 108.413 50.0119C109.831 49.9446 111.198 49.8798 111.857 50.1839C111.965 50.3205 111.996 50.4652 111.981 50.6392C111.969 50.7791 111.888 50.8669 111.787 50.9572C111.243 51.4459 105.873 51.2898 105.04 51.1962C105.006 51.191 104.971 51.1851 104.936 51.1791C104.75 51.1477 104.544 51.1129 104.368 51.1491C103.02 51.4231 101.172 53.4821 100.37 54.514L100.419 54.4011C100.793 53.5397 101.17 52.6743 101.69 51.8867C102.572 50.5522 105.075 48.0818 106.303 46.9141C106.498 46.7286 106.725 46.5399 106.959 46.3455C107.477 45.9159 108.028 45.4587 108.333 44.9511C108.641 44.4393 108.824 43.3694 109.016 42.2464C109.258 40.8353 109.514 39.3402 110.05 38.7636C110.206 38.5961 110.253 38.5861 110.466 38.5644C110.677 38.6558 110.813 38.7445 110.932 38.9463C111.02 39.0936 111.031 39.2406 111.008 39.4047C110.953 39.8023 110.811 40.2205 110.673 40.6299C110.598 40.8513 110.524 41.0701 110.465 41.2816C110.264 42.0009 110.111 42.7317 109.959 43.4618C109.942 43.5441 109.925 43.6271 109.908 43.7093C110.616 43.0368 111.412 42.439 112.201 41.8462C112.457 41.6541 112.712 41.4625 112.963 41.2691C113.343 40.9763 113.725 40.684 114.107 40.3915C115.77 39.1176 117.443 37.837 119.025 36.4764Z" fill="white"/>
<path d="M20.8226 0.503573C20.7965 0.506342 20.7709 0.511951 20.745 0.516179C17.8884 0.854057 15.3027 2.14123 13.5017 4.38665C11.2966 7.13569 10.6934 10.6477 11.1126 14.0679C11.4758 17.0312 12.8503 19.8296 15.2771 21.6716C17.7007 23.5115 20.5198 24.0317 23.5128 23.802C26.4238 23.4078 29.0499 22.1085 30.8583 19.7795C32.9564 17.0777 33.5336 13.5091 33.0758 10.1959C32.6601 7.187 31.141 4.38406 28.6585 2.54969C26.4087 0.887479 23.6096 0.212866 20.8226 0.503573ZM21.7559 4.34121C23.3195 4.32218 24.735 4.61142 25.9652 5.61481C27.47 6.84222 28.1512 8.77961 28.3243 10.6449C28.5472 13.0472 28.2814 15.8856 26.6438 17.8062C25.5162 19.1287 24.0703 19.657 22.3665 19.8054C22.3349 19.8085 22.3034 19.8131 22.2717 19.8148C20.827 19.8878 19.3214 19.4664 18.203 18.5488C16.6674 17.2889 16.0179 15.3726 15.8551 13.4634C15.6511 11.0725 15.8405 8.15809 17.4977 6.24599C18.6201 4.95093 20.0776 4.46164 21.7559 4.34121Z" fill="white"/>
<path d="M55.5826 6.53199C55.5726 6.53309 55.5627 6.53419 55.5527 6.5352C53.6004 6.72094 51.9343 7.48434 50.6628 8.98612C49.0739 10.8629 48.5324 13.4968 48.7688 15.886C48.9679 17.8981 49.8059 19.8848 51.4316 21.1776C53.0711 22.4814 55.1712 22.7886 57.2175 22.5439C58.8294 22.3511 59.8934 21.6424 61.0083 20.5223C61.01 20.6308 61.0121 20.7416 61.0143 20.8541C61.0439 22.3719 61.0797 24.2074 59.9377 25.3351C59.17 26.0931 58.0697 26.2547 57.0304 26.2333C55.9066 26.2102 54.7745 25.9546 53.9751 25.114C53.7487 24.8758 53.6005 24.5805 53.4543 24.2891C53.4286 24.2379 53.4029 24.1868 53.3769 24.1361C52.9695 24.135 52.5461 24.1212 52.1168 24.1072C51.0765 24.0732 50.0009 24.0381 49.0303 24.1801C48.9459 24.4004 49.0085 24.6384 49.0681 24.8648C49.0799 24.9098 49.0916 24.9544 49.1021 24.9982C49.6824 26.7101 50.9185 28.0292 52.5472 28.8436C54.8607 30.0003 58.1525 30.1016 60.5925 29.2962C62.3879 28.7036 63.9363 27.5046 64.7825 25.8157C65.1078 25.1534 65.3169 24.4415 65.401 23.7103C65.5689 22.3708 65.5546 20.9637 65.5406 19.5811C65.5355 19.0785 65.5305 18.5791 65.5342 18.0874L65.5616 6.90317C65.1157 6.9038 64.6696 6.90574 64.2235 6.90767C63.1788 6.9122 62.1339 6.91674 61.0898 6.90455L61.0871 8.36892C59.4472 7.0336 57.8006 6.36306 55.6393 6.52634C55.6204 6.52778 55.6015 6.52988 55.5826 6.53199ZM56.7677 10.1033C57.6371 10.0304 58.5476 10.1816 59.2966 10.6364C60.153 11.1563 60.6846 11.9975 60.9183 12.9493C61.2542 14.3169 61.2308 16.1914 60.4532 17.4072C59.8343 18.3749 58.9427 18.7387 57.8564 18.9628C56.8958 19.0676 55.9058 18.9464 55.0907 18.3953C54.1309 17.7465 53.6107 16.6816 53.4182 15.5762C53.1851 14.2374 53.3446 12.6706 54.1748 11.5503C54.8191 10.6809 55.7131 10.2585 56.7677 10.1033Z" fill="white"/>
<path d="M85.888 38.6619C84.4628 37.5016 82.6821 37.0687 80.8609 37.1115C78.7313 37.2743 77.4455 37.9022 76.0392 39.4739L76.0326 37.4771L71.4995 37.4784L71.5012 60.1444L76.1134 60.1404L76.1068 56.7982L76.1134 52.5681C77.7836 53.9391 79.5701 54.6376 81.769 54.4481C83.7048 54.2823 85.3956 53.4154 86.6461 51.9476C88.3946 49.8943 88.9085 47.0409 88.6536 44.4322C88.4424 42.2741 87.6242 40.0764 85.888 38.6619ZM79.627 40.8473C80.5442 40.7513 81.529 40.9625 82.2821 41.4951C83.3164 42.2261 83.8079 43.4263 83.977 44.6314C84.1964 46.2001 84.0381 48.0411 83.0062 49.3235C82.3002 50.2009 81.4474 50.5676 80.3537 50.7148C79.3986 50.8067 78.3552 50.5904 77.5725 50.031C76.6809 49.3934 76.2099 48.4225 76.0392 47.371C75.7802 45.7813 75.8256 43.6199 76.8483 42.2846C77.5552 41.3627 78.5004 40.982 79.627 40.8473Z" fill="white"/>
<path d="M68.8997 45.0951C68.5231 40.2764 64.2597 36.6686 59.3716 37.0321C54.4722 37.3964 50.8024 41.6116 51.18 46.4417C51.5575 51.2712 55.839 54.8825 60.7373 54.502C65.6241 54.123 69.2764 49.914 68.8997 45.0951ZM59.6494 40.6803C60.4985 40.5824 61.4415 40.7931 62.1705 41.2251C63.1678 41.8156 63.7777 42.8166 64.0409 43.9144C64.4224 45.505 64.3532 47.5777 63.4375 48.9902C62.7742 50.0124 61.8671 50.4979 60.6956 50.7394C59.6295 50.7817 58.6819 50.6987 57.7748 50.0775C56.7619 49.3846 56.216 48.2519 56.0134 47.0825C55.7406 45.5066 55.8667 43.581 56.8529 42.2522C57.5559 41.3053 58.5017 40.8551 59.6494 40.6803Z" fill="white"/>
<path d="M18.8435 31.4173C19.1867 31.3709 19.5577 31.3768 19.9048 31.3658C22.4292 31.2856 25.1366 31.7154 27.0334 33.4978C28.4206 34.8014 28.8289 36.3632 28.8674 38.1969L24.2973 38.2139C24.2441 37.3119 24.1075 36.5916 23.3935 35.9484C22.4399 35.0892 21.0106 34.8856 19.7635 34.9473C18.7835 34.9957 17.7619 35.2611 17.1 36.0233C16.6179 36.5785 16.4601 37.2977 16.541 38.0132C16.6188 38.7023 16.9727 39.2514 17.552 39.6398C18.4572 40.2469 19.6165 40.4752 20.6674 40.7076C22.9804 41.2191 25.8692 41.6237 27.7244 43.1832C28.862 44.1395 29.3926 45.4064 29.5004 46.8571C29.6321 48.629 29.1519 50.2912 27.9508 51.6337C26.2804 53.5008 23.7911 54.2587 21.3441 54.4164C18.6419 54.601 15.6549 54.0716 13.5418 52.2932C11.9921 50.9897 11.3346 49.3219 11.1772 47.3572L15.8326 47.3499C16.0446 48.3241 16.4036 49.1365 17.2197 49.7651C18.3416 50.6295 19.9173 50.8027 21.2938 50.6506C22.3686 50.5319 23.497 50.1188 24.1686 49.2422C24.5868 48.6965 24.7346 48.0216 24.6411 47.3483C24.5447 46.6538 24.1467 46.0903 23.5572 45.7081C22.8925 45.2771 22.0726 45.0657 21.3126 44.8665C18.8085 44.2102 15.8052 43.9947 13.7184 42.3668C12.59 41.4865 11.9308 40.287 11.7655 38.8779C11.5621 37.1436 11.9028 35.517 13.0212 34.1346C14.4217 32.4036 16.6884 31.6641 18.8435 31.4173Z" fill="white"/>
<path d="M81.9585 7.70676C80.3196 6.65304 78.1553 6.46674 76.2509 6.53855C74.1897 6.67378 71.783 7.14022 70.3628 8.76747C69.603 9.63822 69.3175 10.6849 69.2693 11.8082L73.5274 11.8251C73.991 10.9083 74.5559 10.2651 75.5844 9.94495C76.5165 9.65481 77.733 9.65392 78.5999 10.1238C79.1014 10.3959 79.5022 10.8611 79.6631 11.4064C79.7519 11.7046 79.7783 12.0253 79.8039 12.3373C79.808 12.3873 79.8121 12.4371 79.8165 12.4865C79.5253 12.8072 79.2672 13.0275 78.8614 13.1953C77.9019 13.5921 76.7526 13.6666 75.6589 13.7375C75.2783 13.7621 74.9045 13.7864 74.5477 13.8236C71.345 14.1575 68.3617 15.3244 68.5987 19.0578C68.6464 19.8098 68.8453 20.4604 69.172 21.1375C70.0069 22.451 71.1314 23.2697 72.6729 23.6079C74.5411 24.0178 76.8002 23.8247 78.4399 22.7968C79.0065 22.4415 79.4799 22.0006 79.9361 21.5171C80.0293 22.1652 80.1596 22.7889 80.3221 23.4235L84.6094 23.4151C84.1364 21.1843 84.1721 18.8694 84.2073 16.5784C84.2169 15.9605 84.2263 15.3443 84.2258 14.732C84.2256 14.5207 84.2273 14.3053 84.229 14.0869C84.2395 12.7279 84.2508 11.2587 83.811 10.0005C83.4736 9.03591 82.8179 8.25988 81.9585 7.70676ZM79.6746 15.6244L79.8033 15.693C79.988 16.6433 79.748 17.8999 79.2523 18.7157C78.7088 19.6114 77.8279 20.2874 76.7936 20.5305C75.8459 20.7531 75.0071 20.6325 74.1856 20.1202C73.845 19.8169 73.5711 19.4999 73.4268 19.0615C73.261 18.5546 73.2891 17.9446 73.548 17.4722C74.1237 16.4239 76.1863 16.1507 77.896 15.9242C78.587 15.8326 79.2204 15.7487 79.6746 15.6244Z" fill="white"/>
<path d="M32.3528 31.2317L36.9395 31.2318L36.9438 39.6185C37.1512 39.3517 37.3598 39.0841 37.5963 38.8413C38.7598 37.6464 40.3516 37.114 42.0063 37.0846C43.7226 37.0541 45.5162 37.4911 46.766 38.7106C47.5566 39.482 48.0751 40.4969 48.3162 41.5621C48.6593 43.0785 48.4853 44.8057 48.4855 46.358L48.4879 53.9954L43.9048 53.997C43.8672 51.9519 43.9018 49.8994 43.902 47.8534C43.899 46.2011 44.316 43.1663 43.1423 41.8603C42.6064 41.2643 41.849 41.0164 41.0609 40.9752C39.9927 40.9193 38.7996 41.0547 37.9936 41.814C37.4947 42.284 37.1964 42.924 37.0573 43.5835C36.7766 44.9146 36.9312 46.4515 36.9378 47.8087L36.9417 53.9954L32.3537 53.997C32.3042 51.4209 32.3495 48.835 32.35 46.258L32.3528 31.2317Z" fill="white"/>
<path d="M97.5758 6.53422C97.8306 6.51494 98.0863 6.50462 98.342 6.50332C99.9899 6.49372 101.508 6.96943 102.694 8.13488C103.459 8.89691 103.993 9.85459 104.235 10.8999C104.606 12.4677 104.409 14.29 104.409 15.9002L104.419 23.4193H99.8687L99.8745 16.5953C99.8753 15.3616 99.9702 14.0242 99.8019 12.8029C99.7301 12.2822 99.6064 11.7686 99.2897 11.3355C98.8385 10.7176 98.0781 10.3463 97.3193 10.2627C96.0779 10.1259 94.9933 10.3169 93.9871 11.0643C93.4873 11.6184 93.2604 12.092 93.1161 12.8208C92.8786 14.0137 93.013 15.3977 93.0147 16.6102L93.0262 23.4188L88.3364 23.4198L88.3438 6.90543L92.8604 6.90771C92.8621 7.62981 92.8695 8.352 92.8819 9.07402C92.9932 8.93 93.1054 8.78745 93.22 8.64653C94.3492 7.26087 95.8297 6.72198 97.5758 6.53422Z" fill="white"/>
<path d="M124.251 6.53644C126.139 6.42276 128.028 6.7338 129.665 7.70847C131.571 8.8444 132.579 10.505 133.107 12.5955C131.591 12.5777 130.075 12.5766 128.559 12.5922C128.206 11.7726 127.707 11.0638 126.947 10.5607C126.159 10.0388 125.176 9.8207 124.243 10.0248C123.169 10.26 122.275 10.8989 121.69 11.816C120.762 13.2706 120.67 15.4144 121.089 17.0446C121.384 18.1933 122.037 19.2806 123.107 19.8787C123.983 20.3689 125.124 20.479 126.088 20.1877C127.344 19.8073 128.042 18.8036 128.604 17.7063L129.294 17.7059L133.018 17.7021C132.703 18.9308 132.276 20.0445 131.456 21.0384C130.084 22.7014 128.068 23.5858 125.932 23.804C123.576 24.0449 121.207 23.5075 119.355 22.0083C117.535 20.5358 116.52 18.3874 116.318 16.0945C116.107 13.6943 116.615 11.2638 118.218 9.38931C119.77 7.57576 121.9 6.7429 124.251 6.53644Z" fill="white"/>
<path d="M45.7335 6.61766C46.1578 6.59083 46.5809 6.64141 47.0036 6.67694L47.0019 10.8967L46.3214 10.8916C44.8126 10.8884 43.1014 10.9847 41.9845 12.1313C41.4733 12.6562 41.1841 13.3069 41.0275 14.0106C40.7517 15.2499 40.8899 16.6726 40.8952 17.941L40.9054 23.4186C39.5552 23.4222 37.6941 23.5821 36.3895 23.3821C36.2559 23.1956 36.2941 23.0115 36.2866 22.7875L36.2871 6.90943L40.8152 6.90699C40.8366 7.67292 40.8646 8.43861 40.8994 9.20405C41.077 8.9196 41.2659 8.65174 41.4845 8.39608C42.5421 7.15916 44.1688 6.75078 45.7335 6.61766Z" fill="white"/>
<path d="M108.647 6.90723L113.314 6.91081L113.31 17.8476C113.31 19.6927 113.415 21.5817 113.29 23.4199L108.633 23.4216C108.708 21.2785 108.666 19.1238 108.666 16.9792L108.647 6.90723Z" fill="white"/>
<path d="M108.531 0.487464L113.704 0.483643C113.692 1.75683 113.694 3.03011 113.708 4.30322L108.531 4.30509V0.487464Z" fill="white"/>
</g>
<defs>
<clipPath id="clip0_8202_62559">
<rect width="142" height="60" fill="white"/>
</clipPath>
</defs>
</svg>
