<svg style="position: absolute; width: 0; height: 0; overflow: hidden;" aria-hidden="true" version="1.1" xmlns="http://www.w3.org/2000/svg" xmlns:xlink="http://www.w3.org/1999/xlink">
    <style>
        .default-palette, .palette0 {color: currentColor;
            --color0: #fff;
        }
    </style>
    <defs>
        <symbol id="logo" viewBox="0 0 142 60" fill="none">
            <g fill="var(--color0, #fff)" clip-path="url(#clip0_10707_1016)">
                <path d="M125.563 32.0386c-1.44-0.0474-2.876-0.0947-4.317-0.0472-6.692 0.2776-14.272 1.4471-19.031 6.5858-2.2702 2.4527-3.5025 5.4907-3.3285 8.8264 0.1139 1.8866 0.6203 3.73 1.4875 5.4157-8e-3 0.0143-0.016 0.0285-0.024 0.0425-4e-3 76e-4-8e-3 0.0152-0.013 0.0226-0.255 0.4293-0.7945 1.0267-1.3387 1.6291-0.6886 0.7623-1.3845 1.5327-1.5213 1.9814-0.0347 0.1139-91e-4 0.2529 0.0239 0.3643 0.1126 0.3752 0.5039 0.6684 0.8108 0.8984l0.0231 0.0173c0.6733-0.6527 1.2847-1.3618 1.8962-2.0708l0.049-0.0565 1.237-1.4898c3.286 1.837 6.512 2.4168 10.198 1.4085 4.514-1.2344 8.003-4.4001 10.252-8.3774 2.504-4.4277 3.657-10.1132 3.824-15.1427zM119.026 36.4764c0.017 44e-4 0.034 86e-4 0.051 0.0128 0.16 0.0398 0.305 0.0759 0.441 0.1824 0.145 0.1138 0.259 0.2952 0.249 0.481-0.012 0.2222-0.094 0.3338-0.249 0.4891-0.483 0.4817-1.067 0.905-1.64 1.3205-0.253 0.1836-0.504 0.3657-0.744 0.5506-1.516 1.1571-3.009 2.3409-4.482 3.5509 0.93-0.222 4.046-0.7482 4.857-0.4749 0.25 0.0854 0.334 0.2065 0.436 0.4375-0.022 0.3415-0.128 0.5489-0.458 0.692-0.15 0.0654-1.267 0.1725-2.521 0.2927-1.427 0.1369-3.032 0.2906-3.582 0.4188-0.349 0.0813-0.625 0.196-0.917 0.3985-0.443 0.3064-0.844 0.689-1.24 1.0666-0.147 0.1404-0.293 0.2801-0.44 0.415-1.299 1.1888-2.574 2.3867-3.819 3.6308 0.885 0.1927 2.186 0.131 3.445 0.0712 1.419-0.0673 2.785-0.1321 3.444 0.172 0.108 0.1366 0.14 0.2813 0.125 0.4553-0.013 0.1399-0.093 0.2277-0.194 0.318-0.544 0.4887-5.915 0.3326-6.748 0.239-0.033-52e-4-0.068-0.0111-0.104-0.0171-0.185-0.0314-0.391-0.0662-0.567-0.03-1.349 0.274-3.196 2.333-3.999 3.3649l0.049-0.1129c0.375-0.8614 0.751-1.7268 1.272-2.5145 0.882-1.3344 3.385-3.8048 4.612-4.9725 0.195-0.1855 0.423-0.3742 0.657-0.5686 0.517-0.4296 1.068-0.8868 1.374-1.3944 0.307-0.5118 0.491-1.5817 0.683-2.7047 0.242-1.4111 0.498-2.9062 1.033-3.4828 0.156-0.1675 0.203-0.1775 0.417-0.1992 0.211 0.0914 0.346 0.1801 0.466 0.3819 0.087 0.1473 0.099 0.2943 0.076 0.4584-0.056 0.3976-0.197 0.8158-0.336 1.2252-0.075 0.2214-0.149 0.4402-0.208 0.6517-0.201 0.7193-0.353 1.4501-0.505 2.1802-0.017 0.0823-0.035 0.1653-0.052 0.2475 0.709-0.6725 1.504-1.2703 2.293-1.8631 0.256-0.1921 0.511-0.3837 0.762-0.5771 0.38-0.2928 0.762-0.5851 1.144-0.8776 1.664-1.2739 3.336-2.5545 4.919-3.9151z" />
                <path d="M20.8226 0.5036c-0.0261 27e-4-0.0517 84e-4-0.0776 0.0126-2.8566 0.3379-5.4423 1.625-7.2433 3.8705-2.2051 2.749-2.8083 6.261-2.3891 9.6812 0.3632 2.9633 1.7377 5.7617 4.1645 7.6037 2.4236 1.8399 5.2427 2.3601 8.2357 2.1304 2.911-0.3942 5.5371-1.6935 7.3455-4.0225 2.0981-2.7018 2.6753-6.2704 2.2175-9.5836-0.4157-3.0089-1.9348-5.8118-4.4173-7.6462-2.2498-1.6622-5.0489-2.3368-7.8359-2.0461zM21.7559 4.3412c1.5636-0.019 2.9791 0.2702 4.2093 1.2736 1.5048 1.2274 2.186 3.1648 2.3591 5.0301 0.2229 2.4023-0.0429 5.2407-1.6805 7.1613-1.1276 1.3225-2.5735 1.8508-4.2773 1.9992-0.0316 31e-4-0.0631 77e-4-0.0948 94e-4-1.4447 0.073-2.9503-0.3484-4.0687-1.266-1.5356-1.2599-2.1851-3.1762-2.3479-5.0854-0.204-2.3909-0.0146-5.3053 1.6426-7.2174 1.1224-1.2951 2.5799-1.7844 4.2582-1.9048z" />
                <path d="M55.5826 6.532c-0.01 11e-4-0.0199 22e-4-0.0299 32e-4-1.9523 0.1857-3.6184 0.9491-4.8899 2.4509-1.5889 1.8768-2.1304 4.5107-1.894 6.8999 0.1991 2.0121 1.0371 3.9988 2.6628 5.2916 1.6395 1.3038 3.7396 1.611 5.7859 1.3663 1.6119-0.1928 2.6759-0.9015 3.7908-2.0216 17e-4 0.1085 38e-4 0.2193 6e-3 0.3318 0.0296 1.5178 0.0654 3.3533-1.0766 4.481-0.7677 0.758-1.868 0.9196-2.9073 0.8982-1.1238-0.0231-2.2559-0.2787-3.0553-1.1193-0.2264-0.2382-0.3746-0.5335-0.5208-0.8249-0.0257-0.0512-0.0514-0.1023-0.0774-0.153-0.4074-11e-4-0.8308-0.0149-1.2601-0.0289-1.0403-0.034-2.1159-0.0691-3.0865 0.0729-0.0844 0.2203-0.0218 0.4583 0.0378 0.6847 0.0118 0.045 0.0235 0.0896 0.034 0.1334 0.5803 1.7119 1.8164 3.031 3.4451 3.8454 2.3135 1.1567 5.6053 1.258 8.0453 0.4526 1.7954-0.5926 3.3438-1.7916 4.19-3.4805 0.3253-0.6623 0.5344-1.3742 0.6185-2.1054 0.1679-1.3395 0.1536-2.7466 0.1396-4.1292-51e-4-0.5026-0.0101-1.002-64e-4-1.4937l0.0274-11.1842c-0.4459 6e-4-0.892 25e-4-1.3381 45e-4-1.0447 45e-4-2.0896 9e-3-3.1337-31e-4l-27e-4 1.4643c-1.6399-1.3353-3.2865-2.0058-5.4478-1.8426-0.0189 15e-4-0.0378 36e-4-0.0567 57e-4zM56.7677 10.1033c0.8694-0.0729 1.7799 0.0783 2.5289 0.5331 0.8564 0.5199 1.388 1.3611 1.6217 2.3129 0.3359 1.3676 0.3125 3.2421-0.4651 4.4579-0.6189 0.9677-1.5105 1.3315-2.5968 1.5556-0.9606 0.1048-1.9506-0.0164-2.7657-0.5675-0.9598-0.6488-1.48-1.7137-1.6725-2.8191-0.2331-1.3388-0.0736-2.9056 0.7566-4.0259 0.6443-0.8694 1.5383-1.2918 2.5929-1.447z" />
                <path d="M85.888 38.6617c-1.4252-1.1604-3.2059-1.5933-5.0271-1.5504-2.1296 0.1628-3.4154 0.7907-4.8217 2.3623l-66e-4-1.9967-4.5331 13e-4 17e-4 22.666 4.6122-41e-4-66e-4-3.3421 66e-4-4.2302c1.6702 1.371 3.4567 2.0696 5.6556 1.8801 1.9358-0.1659 3.6266-1.0327 4.877-2.5005 1.7486-2.0533 2.2625-4.9067 2.0076-7.5154-0.2112-2.1582-1.0294-4.3558-2.7656-5.7703zM79.627 40.847c0.9172-0.096 1.902 0.1152 2.6551 0.6479 1.0343 0.7309 1.5258 1.9312 1.6949 3.1363 0.2194 1.5686 0.0611 3.4097-0.9708 4.692-0.706 0.8775-1.5588 1.2442-2.6525 1.3914-0.9551 0.0919-1.9985-0.1244-2.7812-0.6839-0.8916-0.6375-1.3626-1.6085-1.5333-2.6599-0.259-1.5898-0.2136-3.7512 0.8091-5.0864 0.7069-0.9219 1.6521-1.3026 2.7787-1.4374z" />
                <path d="M68.8998 45.0949c-0.3767-4.8187-4.6401-8.4266-9.5282-8.0631-4.8994 0.3643-8.5692 4.5795-8.1916 9.4097 0.3775 4.8295 4.659 8.4408 9.5573 8.0602 4.8868-0.3789 8.5391-4.5879 8.1625-9.4068zM59.6494 40.6801c0.8491-0.0979 1.7921 0.1128 2.5211 0.5447 0.9973 0.5905 1.6072 1.5916 1.8704 2.6894 0.3815 1.5905 0.3123 3.6633-0.6034 5.0758-0.6633 1.0222-1.5704 1.5076-2.7419 1.7491-1.0661 0.0423-2.0137-0.0406-2.9208-0.6619-1.0129-0.6928-1.5588-1.8256-1.7614-2.9949-0.2728-1.576-0.1467-3.5016 0.8395-4.8303 0.703-0.9469 1.6488-1.3971 2.7965-1.5719z" />
                <path d="M18.843 31.4171c0.3433-0.0464 0.7142-0.0405 1.0613-0.0516 2.5244-0.0802 5.2318 0.3496 7.1286 2.1321 1.3873 1.3035 1.7955 2.8654 1.8341 4.699l-4.5702 0.0171c-0.0532-0.9021-0.1897-1.6224-0.9038-2.2656-0.9536-0.8591-2.3829-1.0627-3.63-1.0011-0.98 0.0485-2.0016 0.3139-2.6635 1.0761-0.4821 0.5551-0.6399 1.2743-0.559 1.9898 0.0778 0.6891 0.4318 1.2383 1.011 1.6266 0.9052 0.6071 2.0646 0.8355 3.1154 1.0679 2.313 0.5115 5.2018 0.916 7.057 2.4756 1.1376 0.9562 1.6682 2.2232 1.776 3.6739 0.1317 1.7719-0.3485 3.434-1.5495 4.7766-1.6705 1.867-4.1598 2.6249-6.6068 2.7827-2.7022 0.1846-5.6892-0.3448-7.8023-2.1232-1.5497-1.3035-2.2072-2.9714-2.3645-4.936l4.6553-73e-4c0.212 0.9742 0.5711 1.7865 1.3871 2.4151 1.1219 0.8644 2.6976 1.0376 4.0741 0.8856 1.0748-0.1188 2.2032-0.5319 2.8748-1.4085 0.4182-0.5456 0.566-1.2205 0.4725-1.8938-0.0964-0.6945-0.4944-1.258-1.0839-1.6402-0.6647-0.431-1.4846-0.6424-2.2446-0.8417-2.5041-0.6562-5.5074-0.8717-7.5942-2.4997-1.1284-0.8802-1.7876-2.0798-1.9529-3.4888-0.2034-1.7343 0.1373-3.361 1.2558-4.7433 1.4004-1.731 3.6672-2.4705 5.8222-2.7173z" />
                <path d="M81.9589 7.7068c-1.6388-1.0538-3.8031-1.2401-5.7075-1.1683-2.0612 0.1352-4.4679 0.6016-5.8881 2.2289-0.7599 0.8707-1.0453 1.9174-1.0935 3.0407l4.2581 0.0169c0.4635-0.9168 1.0285-1.56 2.057-1.8802 0.9321-0.2902 2.1486-0.2911 3.0155 0.1788 0.5015 0.2721 0.9023 0.7373 1.0632 1.2826 0.0888 0.2982 0.1152 0.6189 0.1408 0.9309 41e-4 0.05 82e-4 0.0998 0.0126 0.1492-0.2912 0.3207-0.5494 0.541-0.9551 0.7088-0.9595 0.3968-2.1088 0.4713-3.2025 0.5422-0.3806 0.0246-0.7544 0.0489-1.1112 0.0861-3.2027 0.3339-6.1861 1.5008-5.949 5.2342 0.0477 0.752 0.2466 1.4026 0.5733 2.0797 0.8348 1.3135 1.9594 2.1322 3.5009 2.4704 1.8682 0.4099 4.1273 0.2168 5.767-0.8111 0.5666-0.3553 1.04-0.7962 1.4961-1.2797 0.0933 0.6481 0.2236 1.2718 0.3861 1.9064l4.2872-84e-4c-0.4729-2.2308-0.4372-4.5457-0.402-6.8367 95e-4-0.6179 0.019-1.2341 0.0185-1.8463-2e-4-0.2114 15e-4-0.4268 31e-4-0.6452 0.0106-1.359 0.0219-2.8282-0.418-4.0864-0.3373-0.9646-0.993-1.7406-1.8525-2.2937zM79.6751 15.6244l0.1287 0.0686c0.1847 0.9503-0.0553 2.2069-0.551 3.0227-0.5435 0.8957-1.4244 1.5717-2.4587 1.8148-0.9477 0.2226-1.7865 0.102-2.608-0.4103-0.3406-0.3033-0.6145-0.6203-0.7588-1.0587-0.1658-0.5069-0.1378-1.1169 0.1212-1.5893 0.5756-1.0483 2.6383-1.3215 4.3479-1.548 0.6911-0.0916 1.3245-0.1755 1.7787-0.2998z" />
                <path d="M32.3528 31.2314l4.5867 1e-4 43e-4 8.3867c0.2074-0.2668 0.416-0.5343 0.6525-0.7771 1.1635-1.1949 2.7553-1.7274 4.41-1.7567 1.7163-0.0305 3.5099 0.4065 4.7597 1.6259 0.7906 0.7715 1.3091 1.7863 1.5502 2.8516 0.3431 1.5163 0.1691 3.2435 0.1693 4.7959l24e-4 7.6373-4.5831 17e-4c-0.0376-2.0452-3e-3-4.0976-28e-4-6.1436-3e-3-1.6524 0.414-4.6872-0.7597-5.9931-0.5359-0.5961-1.2933-0.8439-2.0814-0.8852-1.0682-0.0558-2.2613 0.0796-3.0673 0.8388-0.4989 0.47-0.7972 1.11-0.9363 1.7695-0.2807 1.3312-0.1261 2.8681-0.1195 4.2253l39e-4 6.1866-4.588 17e-4c-0.0495-2.5762-42e-4-5.1621-37e-4-7.739z" />
                <path d="M97.5763 6.5342c0.2548-0.0193 0.5105-0.0296 0.7662-0.0309 1.6479-96e-4 3.1665 0.4661 4.3515 1.6316 0.766 0.762 1.299 1.7197 1.542 2.765 0.371 1.5678 0.174 3.3901 0.174 5.0003l0.01 7.5191h-4.5508l58e-4-6.824c8e-4-1.2337 0.0956-2.5711-0.0726-3.7924-0.0718-0.5207-0.1955-1.0343-0.5122-1.4674-0.4512-0.6179-1.2116-0.9892-1.9705-1.0728-1.2413-0.1368-2.3259 0.0542-3.3321 0.8016-0.4998 0.5541-0.7267 1.0277-0.871 1.7565-0.2375 1.1929-0.1031 2.5769-0.1015 3.7894l0.0116 6.8086-4.6898 1e-3 74e-4-16.5144 4.5166 23e-4c17e-4 0.7221 91e-4 1.4443 0.0215 2.1663 0.1113-0.144 0.2235-0.2866 0.3381-0.4275 1.1292-1.3856 2.6097-1.9245 4.3558-2.1123z" />
                <path d="M124.25 6.5362c1.889-0.1137 3.778 0.1974 5.414 1.172 1.906 1.136 2.915 2.7965 3.442 4.8871-1.516-0.0178-3.032-0.019-4.548-34e-4-0.353-0.8196-0.852-1.5283-1.612-2.0314-0.787-0.5219-1.77-0.74-2.703-0.5359-1.075 0.2351-1.968 0.874-2.554 1.7911-0.928 1.4547-1.019 3.5984-0.6 5.2287 0.294 1.1487 0.947 2.236 2.017 2.834 0.877 0.4903 2.018 0.6004 2.981 0.3091 1.257-0.3805 1.955-1.3841 2.516-2.4814l0.691-4e-4 3.724-38e-4c-0.315 1.2287-0.743 2.3424-1.562 3.3363-1.372 1.6629-3.389 2.5474-5.524 2.7656-2.356 0.2408-4.725-0.2966-6.578-1.7958-1.819-1.4725-2.835-3.6209-3.037-5.9137-0.211-2.4003 0.297-4.8307 1.901-6.7052 1.551-1.8136 3.682-2.6464 6.032-2.8529z" />
                <path d="M45.7335 6.6172c0.4243-0.0269 0.8474 0.0237 1.2701 0.0592l-17e-4 4.2197-0.6805-51e-4c-1.5088-32e-4-3.22 0.0932-4.3369 1.2397-0.5112 0.5249-0.8004 1.1756-0.957 1.8793-0.2758 1.2393-0.1376 2.662-0.1323 3.9304l0.0102 5.4777c-1.3502 35e-4-3.2113 0.1634-4.5159-0.0366-0.1336-0.1865-0.0954-0.3706-0.1029-0.5946l5e-4-15.8781 4.5281-24e-4c0.0214 0.7659 0.0494 1.5316 0.0842 2.2971 0.1776-0.2845 0.3665-0.5524 0.5851-0.808 1.0576-1.2369 2.6843-1.6453 4.249-1.7784z" />
                <path d="M108.647 6.9072l4.668 36e-4-4e-3 10.9368c0 1.8451 0.104 3.7341-0.021 5.5723l-4.657 17e-4c0.075-2.1431 0.033-4.2978 0.033-6.4424z" />
                <path d="M108.531 0.4872l5.173-38e-4c-0.012 1.2732-0.01 2.5465 4e-3 3.8196l-5.177 19e-4z" />
            </g>
            <defs>
                <clipPath id="clip0_10707_1016">
                    <rect fill="#fff" width="142" height="60" />
                </clipPath>
            </defs>
        </symbol>
        <symbol id="Youtube" viewBox="0 0 24 24" fill="none">
            <path fill="var(--color0, #fff)" d="M21.5933 7.203c-0.1139-0.4226-0.3365-0.808-0.6456-1.1178-0.3091-0.3099-0.694-0.5333-1.1164-0.6482C18.2653 5.007 12.0003 5 12.0003 5s-6.264-7e-3-7.831 0.404c-0.422 0.1201-0.8061 0.3468-1.1154 0.6581-0.3093 0.3114-0.5333 0.697-0.6506 1.1199-0.413 1.566-0.417 4.814-0.417 4.814s-4e-3 3.264 0.406 4.814c0.23 0.857 0.905 1.534 1.763 1.765 1.582 0.43 7.83 0.437 7.83 0.437s6.265 7e-3 7.831-0.403c0.4225-0.1147 0.8078-0.3376 1.1177-0.6468s0.5337-0.694 0.6493-1.1162c0.414-1.565 0.417-4.812 0.417-4.812s0.02-3.265-0.407-4.831zM9.9963 15.005l5e-3-6 5.207 3.005z" />
        </symbol>
        <symbol id="X" viewBox="0 0 24 24" fill="none">
            <path fill="var(--color0, #fff)" d="M17.1761 4.2427l2.7601 0-6.0301 6.7774L21 20.2427h-5.5544l-4.3505-5.5934-4.9779 5.5934H3.3554l6.4498-7.2492L3 4.2427l5.6954 0 3.9325 5.1126zM16.2073 18.6181h1.5295L7.8644 5.782l-1.6412 0z" />
        </symbol>
        <symbol id="star" viewBox="0 0 24 24" fill="none">
            <path fill="var(--color0, #fff)" d="M6.516 14.323l-1.49 6.452c-0.0461 0.1954-0.0323 0.4001 0.0398 0.5875s0.1989 0.3487 0.364 0.4628c0.1651 0.1142 0.3608 0.1759 0.5616 0.1771s0.3971-0.0582 0.5636-0.1704L12 18.202l5.445 3.63c0.1704 0.1131 0.3712 0.1713 0.5757 0.1668 0.2044-44e-4 0.4025-0.0714 0.5677-0.1919 0.1652-0.1204 0.2896-0.2886 0.3564-0.4818 0.0668-0.1933 0.0728-0.4023 0.0172-0.5991l-1.829-6.4 4.536-4.082c0.1453-0.1308 0.2491-0.3013 0.2984-0.4905 0.0494-0.1891 0.0423-0.3886-0.0205-0.5738s-0.1784-0.3478-0.3327-0.4679C21.46 8.5917 21.2739 8.5195 21.079 8.504L15.378 8.05 12.911 2.589c-0.0786-0.1758-0.2065-0.3252-0.3682-0.4299C12.3812 2.0543 12.1927 1.9985 12 1.9985c-0.1926 0-0.3811 0.0558-0.5428 0.1606-0.1616 0.1047-0.2895 0.2541-0.3682 0.4299L8.622 8.05 2.921 8.503C2.7295 8.5182 2.5464 8.5882 2.3936 8.7047S2.1248 8.9793 2.0595 9.16 1.9824 9.5364 2.0254 9.7237s0.139 0.3582 0.2766 0.4923zM9.369 9.997C9.5475 9.9829 9.719 9.9211 9.8653 9.818c0.1464-0.1031 0.2624-0.2437 0.3357-0.407L12 5.43l1.799 3.981c0.0734 0.1633 0.1893 0.3039 0.3357 0.407 0.1464 0.1031 0.3178 0.1649 0.4963 0.179l3.972 0.315-3.271 2.944c-0.284 0.256-0.397 0.65-0.293 1.018l1.253 4.385-3.736-2.491c-0.164-0.1101-0.357-0.1688-0.5545-0.1688s-0.3905 0.0587-0.5545 0.1688l-3.904 2.603 1.05-4.546c0.0385-0.1672 0.0334-0.3415-0.015-0.5061s-0.1382-0.3141-0.261-0.4339l-3.038-2.962z" />
        </symbol>
        <symbol id="restaurant" viewBox="0 0 24 24" fill="none">
            <path fill="var(--color0, #fff)" d="M12 10h-2V3H8v7H6V3H4v8c0 1.654 1.346 3 3 3h1v7h2v-7h1c1.654 0 3-1.346 3-3V3h-2zM19 3h-1c-1.159 0-2 1.262-2 3v8h2v7h2V4c0-0.2652-0.1054-0.5196-0.2929-0.7071C19.5196 3.1054 19.2652 3 19 3z" />
        </symbol>
        <symbol id="menu" viewBox="0 0 24 24" fill="none">
            <path fill="var(--color0, #fff)" d="M4 6h16v2H4zM4 11h16v2H4zM4 16h16v2H4z" />
        </symbol>
        <symbol id="LinkedIn" viewBox="0 0 24 24" fill="none">
            <path fill="var(--color0, #fff)" d="M19.3125 3H4.6875C3.7594 3 3 3.7594 3 4.6875v14.625C3 20.2406 3.7594 21 4.6875 21h14.625C20.2406 21 21 20.2406 21 19.3125V4.6875C21 3.7594 20.2406 3 19.3125 3zM9.75 17.625H7.5V9.75h2.25zM8.625 8.625C8.0029 8.625 7.5 8.1221 7.5 7.5c0-0.6221 0.5029-1.125 1.125-1.125S9.75 6.8779 9.75 7.5c0 0.6221-0.5029 1.125-1.125 1.125zM17.625 17.625h-2.25v-4.5c0-0.6221-0.5029-1.125-1.125-1.125s-1.125 0.5029-1.125 1.125v4.5h-2.25V9.75h2.25v1.3956c0.4641-0.6362 1.1739-1.3956 1.9688-1.3956 1.3994 0 2.5312 1.2589 2.5312 2.8125z" />
        </symbol>
        <symbol id="Instagram" viewBox="0 0 24 24" fill="var(--color0, #fff)">
            <path d="M11.9988 4.6209c2.4044 0 2.689 0.0107 3.6344 0.0529 0.8791 0.0388 1.3532 0.1861 1.6698 0.3093 0.4185 0.162 0.7205 0.3588 1.0332 0.6715 0.3166 0.3166 0.5096 0.6152 0.6749 1.0337 0.1232 0.3166 0.2705 0.7941 0.3093 1.6698 0.0422 0.9494 0.0529 1.234 0.0529 3.635 0 2.401-0.0107 2.6889-0.0529 3.6349-0.0388 0.8791-0.1861 1.3532-0.3093 1.6699-0.162 0.4184-0.3583 0.7204-0.6715 1.0331-0.3167 0.3167-0.6153 0.5096-1.0332 0.675-0.3166 0.1231-0.7947 0.2705-1.6698 0.3093-0.9494 0.0422-1.234 0.0529-3.635 0.0529-2.401 0-2.6889-0.0107-3.6349-0.0529-0.8791-0.0388-1.3532-0.1862-1.6699-0.3093-0.4184-0.162-0.7205-0.3583-1.0337-0.6716-0.3167-0.3166-0.5096-0.6153-0.6749-1.0332-0.1232-0.3166-0.2706-0.7947-0.3094-1.6698-0.0421-0.9494-0.0528-1.234-0.0528-3.635 0-2.4009 0.0107-2.6889 0.0528-3.6349 0.0389-0.8791 0.1862-1.3532 0.3094-1.6698 0.162-0.4185 0.3588-0.7205 0.6715-1.0338 0.3167-0.3166 0.6153-0.5095 1.0337-0.6749 0.3167-0.1232 0.7942-0.2705 1.6699-0.3093 0.9454-0.0422 1.2306-0.0529 3.6349-0.0529zM11.9988 3.0006c-2.4432 0-2.7486 0.0107-3.7086 0.0528-0.9561 0.0422-1.6136 0.1969-2.1828 0.4185-0.5939 0.2317-1.0967 0.5376-1.5956 1.0405C4.009 5.0118 3.703 5.514 3.4713 6.1046 3.2497 6.6777 3.0951 7.3312 3.0529 8.2874 3.0107 9.2508 3 9.5562 3 11.9994c0 2.4431 0.0107 2.7485 0.0529 3.7086 0.0421 0.9561 0.1968 1.6136 0.4184 2.1828 0.2323 0.5939 0.5377 1.0967 1.0405 1.5956 0.4989 0.4988 1.0017 0.8087 1.5922 1.0371 0.5731 0.2216 1.2267 0.3762 2.1828 0.4184 0.9595 0.0422 1.2654 0.0529 3.7086 0.0529 2.4432 0 2.7492-0.0107 3.7087-0.0529 0.9561-0.0422 1.6136-0.1968 2.1827-0.4184 0.5906-0.2284 1.0934-0.5377 1.5923-1.0371 0.4988-0.4995 0.8087-1.0017 1.0371-1.5923 0.2216-0.5731 0.3762-1.2266 0.4184-2.1827 0.0422-0.9595 0.0529-1.2655 0.0529-3.7087 0-2.4431-0.0107-2.7485-0.0529-3.7086-0.0422-0.9561-0.1968-1.6136-0.4184-2.1828-0.2216-0.5978-0.5276-1.1001-1.0298-1.5995-0.4989-0.4989-1.0017-0.8088-1.5923-1.0371-0.5731-0.2216-1.2266-0.3763-2.1827-0.4185C14.7485 3.0107 14.4425 3 11.9994 3z" />
            <path d="M11.9985 7.377C9.4468 7.377 7.376 9.4472 7.376 11.9995c0 2.5523 2.0703 4.6226 4.6225 4.6226 2.5523 0 4.6226-2.0703 4.6226-4.6226 0-2.5517-2.0703-4.6226-4.6226-4.6226zM11.9985 14.9978c-1.6557 0-2.9982-1.3425-2.9982-2.9983s1.3425-2.9983 2.9982-2.9983c1.6558 0 2.9983 1.3425 2.9983 2.9983s-1.3425 2.9983-2.9983 2.9983z" />
            <path d="M17.8822 7.194c0 0.5962-0.4831 1.0793-1.0793 1.0793-0.5961 0-1.0793-0.4831-1.0793-1.0793s0.4832-1.0792 1.0793-1.0792c0.5962-1e-4 1.0793 0.4831 1.0793 1.0792z" />
        </symbol>
        <symbol id="health" viewBox="0 0 24 24" fill="none">
            <path fill="var(--color0, #fff)" d="M19.6486 5.2859l-5.649 3.262v-6.523h-4l0 6.523-5.649-3.262-2 3.465 5.648 3.261-5.648 3.261 2 3.465 5.649-3.261 0 6.523h4v-6.523l5.649 3.261 2-3.465-5.648-3.261 5.648-3.261z" />
        </symbol>
        <symbol id="Google" viewBox="0 0 24 24" fill="none">
            <path fill="var(--color0, #fff)" d="M21 11.7898c0 4.15-2.21 9.21-8.87 9.21-5.0054 0.0332-9.0915-3.9947-9.13-9 0.0385-5.0054 4.1246-9.0333 9.13-9.0001 2.0707 77e-4 4.0785 0.7122 5.7 2 0.112 0.0915 0.1809 0.2256 0.19 0.37 6e-4 0.1461-0.057 0.2864-0.16 0.39-0.651 0.5952-1.2718 1.2227-1.86 1.88-0.1711 0.1883-0.4578 0.2144-0.66 0.06-0.9239-0.6837-2.0512-1.036-3.2-1-2.9547 0-5.35 2.3953-5.35 5.3501 0 2.9547 2.3953 5.35 5.35 5.35 3 0 4.27-1.28 4.93-3.55H12.5c-0.2761 0-0.5-0.2239-0.5-0.5v-2.65c0-0.2762 0.2239-0.5 0.5-0.5h8c0.2302-15e-4 0.4244 0.1711 0.45 0.4 0.0371 0.3955 0.0538 0.7927 0.05 1.19z" />
        </symbol>
        <symbol id="Facebook" viewBox="0 0 24 24" fill="none">
            <path fill="var(--color0, #fff)" d="M22 12.3038c0-5.5566-4.4771-10.0611-10-10.0611-5.5228 0-10 4.5045-10 10.0611 0 5.0217 3.6568 9.1841 8.4375 9.9389v-7.0306H7.8984l0-2.9083h2.5391v-2.2166c0-2.5216 1.493-3.9144 3.7771-3.9144 1.0942 0 2.2385 0.1965 2.2385 0.1965v2.476l-1.2609 0c-1.2422 0-1.6297 0.7756-1.6297 1.5713v1.8872h2.7734l-0.4433 2.9083h-2.3301v7.0306C18.3432 21.4879 22 17.3257 22 12.3038z" />
        </symbol>
        <symbol id="chevron-up" viewBox="0 0 24 24" fill="none">
            <path fill="var(--color0, #fff)" d="M6.293 14.2929l1.414 1.414 4.293-4.293 4.293 4.293 1.414-1.414L12 8.5859z" />
        </symbol>
        <symbol id="chevron-right" viewBox="0 0 24 24" fill="none">
            <path fill="var(--color0, #fff)" d="M9.707 16.9496l5.707-5.707-5.707-5.707-1.414 1.414 4.293 4.293-4.293 4.293z" />
        </symbol>
        <symbol id="chevron-left" viewBox="0 0 24 24" fill="none">
            <path fill="var(--color0, #fff)" d="M13.2929 6.293 7.5859 12l5.707 5.707 1.414-1.414L10.4139 12l4.293-4.293z" />
        </symbol>
        <symbol id="chevron-down" viewBox="0 0 24 24" fill="none">
            <path fill="var(--color0, #fff)" d="M16.293 8.293 12 12.586 7.707 8.293 6.293 9.707 12 15.414l5.707-5.707z" />
        </symbol>
        <symbol id="cheese" viewBox="0 0 24 24" fill="var(--color0, #fff)">
            <path d="M15.1596 2.0003c-0.2284-0.0342-0.4616 0.0117-0.66 0.13l-12 7c-0.0474 0.0276-0.0911 0.0612-0.13 0.1l-0.1 0.08c-0.068 0.0787-0.1251 0.1661-0.17 0.26-0.0711 0.1318-0.1056 0.2803-0.1 0.43l0 10c0 0.2652 0.1054 0.5195 0.2929 0.7071 0.1875 0.1875 0.4419 0.2929 0.7071 0.2929h18c0.2652 0 0.5196-0.1054 0.7071-0.2929 0.1876-0.1876 0.2929-0.4419 0.2929-0.7071v-10c38e-4-1.9308-0.684-3.7991-1.9387-5.2665-1.2547-1.4675-2.9934-2.4372-4.9013-2.7335zM15.1596 4.0503c1.2023 0.2462 2.3017 0.851 3.1533 1.7347 0.8515 0.8837 1.4152 2.0047 1.6167 3.2153l-13.23 0zM19.9996 19.0003h-16l0-8h16z" />
            <path d="M6.4996 18.0002c0.8285 0 1.5-0.6715 1.5-1.5 0-0.8284-0.6715-1.5-1.5-1.5-0.8284 0-1.5 0.6716-1.5 1.5 0 0.8285 0.6716 1.5 1.5 1.5z" />
            <path d="M11.4996 15.0002c0.8285 0 1.5-0.6715 1.5-1.5 0-0.8284-0.6715-1.5-1.5-1.5-0.8284 0-1.5 0.6716-1.5 1.5 0 0.8285 0.6716 1.5 1.5 1.5z" />
            <path d="M16.9996 18.0002c1.1046 0 2-0.8954 2-2 0-1.1045-0.8954-2-2-2-1.1045 0-2 0.8955-2 2 0 1.1046 0.8955 2 2 2z" />
        </symbol>
        <symbol id="basketball" viewBox="0 0 24 24" fill="none">
            <path fill="var(--color0, #fff)" d="M4.9291 19.0712c1.895 1.895 4.405 2.938 7.071 2.938 2.666 0 5.177-1.043 7.071-2.938 3.899-3.899 3.899-10.243 0-14.143-1.894-1.894-4.406-2.938-7.071-2.938-2.665 0-5.177 1.044-7.071 2.939-3.899 3.898-3.899 10.243 0 14.142zM12.3091 4.0062c1.6702 0.0602 3.2783 0.6476 4.594 1.678l-4.903 4.902-1.46-1.46c1.161-1.479 1.792-3.308 1.769-5.12zM9.1101 7.6962l-2.012-2.012c0.9446-0.7404 2.0449-1.2567 3.218-1.51-0.015 1.236-0.445 2.477-1.206 3.522zM7.6861 9.1002c-1.0186 0.696-2.2253 1.0647-3.459 1.057 0.2599-1.1125 0.7572-2.1557 1.458-3.058zM4.0111 12.1462c0.077 2e-3 0.154 0.014 0.231 0.014 1.7597 56e-4 3.4728-0.5655 4.877-1.626l1.467 1.466-4.901 4.901c-1.0576-1.3622-1.645-3.0306-1.674-4.755zM16.3051 14.8912c1.042-0.758 2.28-1.188 3.508-1.206-0.2501 1.1715-0.7619 2.2712-1.497 3.217zM16.9021 18.3162c-0.9017 0.7049-1.9452 1.2064-3.059 1.47-0.0113-1.2382 0.3577-2.4501 1.057-3.472zM11.8581 20.0022c-1.7284-0.0275-3.4004-0.6196-4.761-1.686l4.903-4.902 1.463 1.463c-1.103 1.444-1.659 3.266-1.605 5.125zM19.9821 11.6922c-1.807-0.018-3.633 0.61-5.108 1.768l-1.46-1.46 4.901-4.901c1.023 1.3187 1.6061 2.9252 1.667 4.593z" />
        </symbol>
    </defs>
</svg>